<?xml version="1.0" standalone="no"?>
<!DOCTYPE svg PUBLIC "-//W3C//DTD SVG 20010904//EN"
 "http://www.w3.org/TR/2001/REC-SVG-20010904/DTD/svg10.dtd">
<svg version="1.0" xmlns="http://www.w3.org/2000/svg"
 width="512.000000pt" height="512.000000pt" viewBox="0 0 512.000000 512.000000"
 preserveAspectRatio="xMidYMid meet">

<g transform="translate(0.000000,512.000000) scale(0.100000,-0.100000)"
fill="#000000" stroke="none">
<path d="M1463 4651 c-134 -47 -243 -88 -243 -91 0 -3 66 -28 148 -56 l147
-51 5 -289 c3 -159 7 -296 10 -304 4 -13 -18 -15 -157 -18 -90 -1 -163 -6
-163 -10 -1 -4 16 -93 37 -199 l37 -191 -61 -66 c-117 -124 -173 -284 -175
-496 -2 -177 33 -304 115 -419 100 -140 246 -427 301 -591 87 -261 70 -395
-59 -475 -42 -26 -58 -30 -119 -30 -82 1 -140 25 -193 82 -18 19 -33 32 -33
30 0 -3 7 -41 15 -86 19 -98 58 -216 96 -294 l29 -57 -200 0 -200 0 0 -240 0
-240 640 0 c352 0 640 -2 640 -4 0 -3 -52 -91 -115 -195 -76 -127 -109 -191
-99 -191 8 0 45 7 82 15 l67 15 58 115 c67 132 93 156 173 163 l53 4 7 42 c4
22 9 36 11 30 2 -7 -12 -75 -32 -152 -19 -78 -35 -146 -35 -151 0 -9 288 -161
305 -161 3 0 5 78 5 173 0 168 1 174 23 195 21 20 34 22 126 22 l103 0 -6 42
c-3 24 13 -30 36 -118 l42 -161 55 -11 c31 -5 57 -8 59 -7 2 2 -13 35 -32 74
-62 122 -41 181 63 181 l53 0 -21 36 c-12 19 -21 37 -21 40 0 2 268 4 595 4
327 0 595 2 595 5 0 3 -34 57 -77 120 l-76 115 76 115 c43 63 77 117 77 120 0
3 -70 5 -155 5 l-155 0 29 57 c38 78 77 196 96 294 8 45 15 83 15 86 0 2 -15
-11 -32 -30 -54 -57 -112 -81 -194 -82 -61 0 -77 4 -119 30 -67 41 -107 108
-113 185 -5 67 18 191 55 300 49 144 208 453 300 581 82 115 117 242 115 419
-2 212 -58 372 -175 496 l-61 66 37 191 c21 106 38 195 37 200 0 4 -76 7 -169
7 l-170 0 15 35 c11 27 14 91 14 304 l0 270 -172 -62 -173 -62 -150 2 c-312 5
-667 61 -930 149 -172 56 -356 159 -418 234 -14 16 -32 29 -39 29 -7 -1 -122
-40 -255 -88z m57 -896 c0 -9 -153 -235 -159 -235 -6 0 -81 216 -81 233 0 4
54 7 120 7 66 0 120 -2 120 -5z m2320 -2 c0 -17 -75 -233 -81 -233 -6 0 -159
226 -159 235 0 3 54 5 120 5 66 0 120 -3 120 -7z m-1877 -368 c91 -24 176 -72
243 -139 205 -205 204 -526 -1 -731 -205 -205 -526 -206 -731 -1 -205 205
-205 527 0 732 129 129 319 183 489 139z m1440 0 c91 -24 176 -72 243 -139
205 -205 204 -526 -1 -731 -205 -205 -526 -206 -731 -1 -205 205 -205 527 0
732 129 129 319 183 489 139z m-683 -752 c0 -15 -154 -393 -160 -393 -6 0
-160 378 -160 393 0 4 72 7 160 7 88 0 160 -3 160 -7z m-743 -575 c11 -13 23
-39 27 -59 8 -45 37 -72 76 -72 39 0 68 27 76 72 9 52 40 81 84 81 44 0 75
-29 84 -81 8 -45 37 -72 76 -72 39 0 68 27 76 72 9 52 40 81 84 81 44 0 75
-29 84 -81 8 -45 37 -72 76 -72 39 0 68 27 76 72 9 52 40 81 84 81 44 0 75
-29 84 -81 8 -45 37 -72 76 -72 39 0 68 27 76 72 14 78 94 110 143 57 21 -22
23 -33 19 -86 -5 -71 -39 -127 -106 -175 -37 -25 -55 -30 -117 -33 -63 -4 -80
-1 -124 22 l-51 25 -49 -24 c-36 -19 -65 -25 -111 -25 -46 0 -75 6 -111 25
l-49 24 -49 -24 c-68 -34 -154 -34 -222 0 l-49 24 -52 -24 c-97 -45 -219 -25
-284 47 -63 69 -84 180 -42 225 29 31 87 32 115 1z m160 -400 c16 -18 22 -40
25 -96 4 -83 26 -115 77 -115 40 0 69 27 77 72 9 52 40 81 84 81 44 0 75 -29
84 -81 8 -45 37 -72 76 -72 39 0 68 27 76 72 9 52 40 81 84 81 44 0 75 -29 84
-81 8 -45 37 -72 77 -72 51 0 73 32 77 115 3 56 9 78 25 96 27 29 82 30 114 0
21 -19 23 -30 23 -110 0 -52 -6 -102 -14 -121 -19 -45 -106 -123 -152 -136
-75 -21 -170 -6 -213 34 -17 15 -21 14 -55 -9 -69 -46 -183 -46 -251 0 -36 24
-37 24 -63 6 -91 -63 -214 -52 -295 26 -62 60 -77 98 -77 198 0 76 3 91 22
111 29 31 87 31 115 1z"/>
<path d="M1743 3182 c-109 -39 -178 -112 -210 -221 -29 -102 4 -228 82 -306
122 -121 328 -121 450 0 121 122 121 328 0 450 -82 81 -219 114 -322 77z m312
-247 c50 -49 15 -135 -55 -135 -41 0 -80 39 -80 80 0 41 39 80 80 80 19 0 40
-9 55 -25z"/>
<path d="M3183 3182 c-109 -39 -178 -112 -210 -221 -29 -102 4 -228 82 -306
122 -121 328 -121 450 0 21 21 49 63 64 94 54 115 27 264 -64 356 -82 81 -219
114 -322 77z m-8 -247 c16 -15 25 -36 25 -55 0 -19 -9 -40 -25 -55 -15 -16
-36 -25 -55 -25 -19 0 -40 9 -55 25 -16 15 -25 36 -25 55 0 19 9 40 25 55 15
16 36 25 55 25 19 0 40 -9 55 -25z"/>
<path d="M4475 870 l-70 -70 75 -74 75 -74 237 71 c131 39 234 74 230 78 -9 8
-446 139 -464 139 -8 0 -45 -32 -83 -70z"/>
</g>
</svg>
