<?xml version="1.0" encoding="utf-8"?>
<!-- Designed by Vexels.com - 2020 All Rights Reserved - https://vexels.com/terms-and-conditions/  -->
<svg version="1.1" id="Layer_1" xmlns="http://www.w3.org/2000/svg" xmlns:xlink="http://www.w3.org/1999/xlink" x="0px" y="0px"
	 viewBox="0 0 1200 1200" enable-background="new 0 0 1200 1200" xml:space="preserve">
<g>
	<g>
		<g>
			<path fill="#D0C0B8" d="M751.475,50.787c-6.947-2.927-14.095,2.986-19.434,6.697c-13.288,9.238-26.877,19.773-42.046,25.721
				c-3.812,1.495-7.718,2.749-11.682,3.777c-9.702,2.517-19.714,3.633-29.717,3.944c-11.712,0.363-23.093-2.2-34.565-4.13
				c-4.269-0.718-8.544-1.392-12.823-2.02c-8.559-1.256-17.138-2.332-25.731-3.226c-21.483-2.237-43.053-3.345-64.623-3.324
				c-21.569,0.021-43.138,1.171-64.617,3.449c-13.114,1.391-26.336,4.501-39.638,5.363c-13.303,0.862-26.531-1.339-39.179-5.44
				c-6.941-2.251-13.693-5.118-20.172-8.579c0,0-18.518-9.89-18.518-9.89c-7.346-4.339-17.973-12.817-26.972-11.213
				c-3.416,0.609-6.513,2.48-8.546,5.317c-0.534,0.745-0.997,1.555-1.378,2.425c41.148,37.066,78.194,87.642,109.581,133.317
				c29.116,42.369,60.279,90.12,81.823,144.981c5.05,12.858,18.864,9.92,30.763,8.626c10.46-1.138,17.484,2.244,22.428-7.742
				c84.616-170.931,211.062-268.703,222.793-277.06C757.746,57.783,755.702,52.567,751.475,50.787z M398.341,135.956
				c-6.265-0.016-15.216-3.715-17.433-10.22c-0.854-2.505-1.684-10.847,4.279-6.941c4.834,3.237,11.134,3.932,16.581,2.257
				c4.466-1.373,13.96-11.801,17.553-7.093C426.626,123.529,405.508,135.974,398.341,135.956z M473.247,164.022
				c-1.368,9.308-8.475,14.582-17.553,14.325c-5.94-0.167-13.091-2.705-16.585-7.827c-2.26-3.314-4.765-10.348,1.073-11.394
				c1.877-0.336,2.992,2.359,4.499,2.745c3.961,1.015,7.975,2.884,12.312,2.417C460.236,163.94,474.262,155.557,473.247,164.022z
				 M486.155,115.968c-4.023,11.465-18.731,17.564-29.789,12.22c-4.901-2.368-10.593-8.618-10.645-14.558
				c-0.022-2.555-0.473-9.178,4.804-5.799c6.326,4.811,10.235,9.707,18.702,7.526C474.616,113.97,493.161,96.001,486.155,115.968z
				 M498.344,156.315c4.565,6.259,10.513,8.478,17.645,5.69c3.033-1.186,5.777-5.666,8.104-6.429
				c6.514-2.137,7.625,2.59,5.392,8.825c-3.406,9.515-16.095,15.195-25.647,12.177c-5.734-1.811-11.195-7.329-11.813-13.564
				C491.772,160.452,493.341,150.045,498.344,156.315z M530.925,216.902c-4.119,10.258-17.401,14.341-27.497,10.295
				c-5.012-2.009-10.336-7.24-10.511-13.017c-0.074-2.421,0.103-11.304,5.497-6.158c4.893,5.656,13.729,8.797,21.063,5.221
				c2.902-1.415,5.809-8.611,9.83-7.912C534.498,206.232,532.185,213.765,530.925,216.902z M536.422,127.299
				c-6.666-0.338-14.558-5.425-16.886-11.81c-0.891-2.445-1.626-13.085,4.531-7.818c4.075,3.411,10.169,6.226,14.995,5.12
				c5.516-1.265,19.944-17.079,18.213-2.361C556.226,119.359,545.088,127.738,536.422,127.299z M562.793,173.68
				c-4.654-1.244-12.659-7.228-12.772-12.923c-0.056-2.837,1.547-8.059,5.547-4.912c7.024,4.648,12.035,5.32,19.166,1.547
				c4.045-2.14,7.993-7.984,10.236-0.399C588.235,168.032,571.35,175.968,562.793,173.68z M623.56,121.929
				c-1.219,9.692-14.746,12.248-22.176,8.901c-4.425-1.993-17.302-18.131-6.004-17.59c4.759,1.876,9.755,5.507,15.155,5.233
				C616.092,118.192,624.921,111.108,623.56,121.929z"/>
			<path fill="#D0C0B8" d="M997.358,1130.92L819.283,320.679l-1.703-7.751c-1.43,41.401-19.949,78.529-48.746,104.504
				c-17.923,36.826-41.573,78.17-71.877,117.733c-84.759,110.658-157.746,214.252-120.075,324.909
				c21.256,62.44,95.754,133.113,189.618,191.741c20.003,12.494,40.868,24.453,62.304,35.656
				c47.942,25.054,98.649,46.386,148.458,61.799C988.815,1152.845,999.954,1142.732,997.358,1130.92z M701.403,580.228
				c4.066,12.954,12.109,34.902,27.058,38.339c12.257,2.818,20.59-8.735,30.928,4.262c8.399,10.56,12.563,24.251,27.912,27.002
				c11.791,2.113,22.323-9.208,33.422-5.33c12.531,4.379,14.616,25.199,25.361,33.364c6.259,4.756,12.641,6.422,20.43,5.659
				c3.563-0.349,13.322-4.484,12.597,3.008c-1.211,12.514-30.867,7.5-37.191,4.385c-12.403-6.109-20.72-17.927-26.616-30.108
				c-29.489,14.134-56.649,0.738-69.985-28.453c-17.947,2.473-30.862,0.543-41.325-16.901c-4.816-8.03-8.515-18.152-9.676-27.513
				C693.787,583.658,696.3,570.234,701.403,580.228z M683.296,758.769c-9.553,25.777-18.726,51.723-25.8,78.305
				c-3.589,13.486-6.447,27.141-8.917,40.871c-0.714,3.969-1.443,32.227-10.98,25.302c-6.489-4.711-2.689-31.289-2.148-38.294
				c1.192-15.444,4.216-30.753,8.739-45.567c4.701-15.398,10.919-30.386,18.797-44.435c2.815-5.021,7.185-15.338,12.216-18.89
				C677.703,754.296,685.912,751.616,683.296,758.769z M762.63,800.269c-8.712,33.742-16.112,67.614-22.776,101.833
				c-3.748,19.246-7.463,38.506-11.598,57.674c-0.852,3.951-2.639,26.305-11.472,19.244c-5.528-4.418,0.178-34.136,0.761-40.457
				c1.835-19.924,4.768-39.796,8.922-59.37c4.007-18.881,8.982-37.703,16.062-55.687c2.883-7.324,5.829-16.937,10.82-23.137
				C755.314,797.927,764.881,791.241,762.63,800.269z M833.423,849.822c-10.041,34.287-13.674,69.958-17.615,105.376
				c-2.158,19.392-4.19,38.807-6.688,58.16c-0.436,3.378-3,29.965-10.671,15.1c-2.312-4.48-1.062-13.882-1.246-18.831
				c-0.356-9.585-0.362-19.186-0.108-28.773c0.598-22.547,2.539-45.166,6.423-67.396c2.727-15.608,6.361-31.284,12.024-46.114
				c2.186-5.724,4.87-14.43,9.301-18.873C827.63,845.676,834.017,841.836,833.423,849.822z M903.767,1060.495
				c-0.137,3.814-0.325,31.843-9.412,18.144c-5.684-8.569-4.231-29.128-5.186-39.187c-1.962-20.674-2.947-41.432-3.098-62.196
				c-0.135-18.45,0.285-36.986,2.413-55.332c0.747-6.444,0.234-17.998,4.002-23.327c2.412-3.41,6.849-6.111,8.273-0.035
				c1.125,35.455,2.826,70.901,3.363,106.374C904.402,1023.451,904.432,1041.988,903.767,1060.495z M909.679,792.831
				c-4.204,7.09-18.666,11.578-25.941,12.254c-25.895,2.406-38.956-18.953-53.365-35.865c-13.998,5.317-26.889,9.698-41.969,3.772
				c-14.728-5.788-25.438-19.011-32.288-32.918c-30.585,11.526-56.741-6.24-72.709-33.149c0.01-0.001,0.039,0.003,0.052,0.002
				c-16.503-0.281-31-5.385-42.101-18.232c-5.116-5.92-10.229-13.887-12.218-21.576c-0.419-1.619-1.79-3.837-1.114-5.57
				c1.15-2.949,5.84-6.33,7.584-0.951c-0.69-2.128,0.033,0.088,0,0c2.798,7.53,8.228,14.91,14.023,20.378
				c10.768,10.16,20.285,9.526,33.831,11.304c12.555,1.647,15.948,12.857,24.299,21.104c8.526,8.42,19.406,15.275,31.898,13.616
				c9.112-1.21,16.464-8.311,25.869-2.351c7.584,4.807,10.471,16.395,16.484,22.87c6.962,7.497,15.65,12.078,26.033,11.38
				c16.711-1.123,25.956-11.916,37.744,5.846c6.66,10.036,13.989,20.696,25.349,25.885c11.717,5.353,20.271,1.408,30.981-3.177
				C907.999,784.935,914.676,784.404,909.679,792.831z"/>
		</g>
		<path fill="#D0C0B8" d="M380.084,554.844c32.673,26.83,71.769,20.146,101.175-7.445c27.902,16.602,60.345,20.52,84.277-3.697
			c17.276,12.4,38.896,20.245,60.107,14.52c10.878-2.936,20.407-9.544,28.02-17.735c3.022-3.252,15.466-17.633,3.154-16.102
			c-4.593,0.571-11.979,11.123-15.866,13.809c-7.773,5.372-16.185,8.601-25.698,8.87c-12.094,0.342-23.66-4.384-33.679-10.836
			c-3.587-2.31-7.558-6.789-11.81-8.238c-12.243-4.175-22.532,12.942-33.517,15.657c-12.307,3.042-25.609-1.006-36.725-6.242
			c-6.848-3.226-14.312-10.275-22.475-8.066c-3.719,1.006-5.879,3.564-8.599,5.976c-7.487,6.64-14.741,12.979-24.187,16.745
			c-10.919,4.354-22.903,4.735-34.121,1.115c-9.308-3.004-15.999-10.338-24.716-13.742c-14.155-5.528-25.77,15.585-37.039,20.866
			c-20.532,9.621-41.413-1.76-54.185-18.471c-3.387-3.248-6.659-1.101-7.066,2.808c-0.319,3.065,3.858,7.12,5.609,9.331
			c7.209,9.099,16.585,16.771,27.701,20.466C343.124,581.972,364.03,570.14,380.084,554.844z M563.373,542.131
			c0.018,0.014,0.037,0.026,0.055,0.04c-0.012-0.009-0.026-0.009-0.039-0.018C563.226,542.026,563.221,542.019,563.373,542.131z
			 M483.48,545.274c-0.046,0.046-0.035,0.037-0.059,0.06c-0.004,0.004-0.011,0.006-0.015,0.01
			C483.431,545.32,483.456,545.298,483.48,545.274z M382.13,552.874c-0.093,0.094-0.126,0.128-0.163,0.166
			c-0.013,0.011-0.024,0.016-0.037,0.027C381.996,553.001,382.065,552.939,382.13,552.874z"/>
		<path fill="#D0C0B8" d="M574.411,658.613c-3.296-7.77-13.252,4.197-16.04,6.341c-7.355,5.657-15.53,10.786-24.744,12.666
			c-17.779,3.628-25.099-6.947-38.501-14.493c-15.472-8.712-31.721,18.3-47.301,21.118c-18.946,3.427-28.625-8.619-43.258-16.669
			c-15.537-8.548-20.467,7.116-32.081,13.65c-18.594,10.461-40.503,1.017-55.694-11.261c-4.848-2.887-7.043,1.516-5.758,5.698
			c0.68,2.215,5.084,5.266,6.759,6.744c8.39,7.405,18.54,13.345,29.507,15.862c18.595,4.267,35.717-2.854,48.769-15.847
			c29.351,27.328,64.671,23.61,91.942-3.725c13.041,11.425,30.323,17.144,47.726,12.407
			C542.812,689.179,579.265,670.056,574.411,658.613z"/>
		<path fill="#D0C0B8" d="M525.975,783.34c-10.127,2.946-17.185,12.769-28.648,14.365c-22.673,3.157-31.813-30.773-52.742-13.894
			c-19.968,16.104-38.972,20.084-59.169-0.296c-3.922-4.319-6.872,1.295-6.655,4.604c0.197,3.007,5.299,8.011,7.234,10.146
			c6.509,7.181,14.997,12.779,24.538,14.9c17.793,3.955,32.921-5.161,45.715-16.313c18.495,20.63,45.756,21.276,66.585,2.538
			C526.988,795.651,541.327,778.874,525.975,783.34z M457.96,795.326c0.299-0.268,0.603-0.533,0.899-0.802
			c-0.86,0.846-0.003,0.025,0.078-0.045C458.644,794.937,458.31,795.181,457.96,795.326z"/>
		<path fill="#D0C0B8" d="M494.994,897.649c-11.482,3.927-34.733,3.449-43.358-7.126c-4.769-3.222-6.307,2.294-6.019,5.422
			c0.289,3.14,5.117,7.285,7.238,9.339c6.876,6.661,15.813,11.034,25.344,12.132c14.59,1.68,44.9-9.496,47.275-27.58
			C527.42,875.008,501.202,895.526,494.994,897.649z"/>
		<path fill="#E8E4D9" d="M483.48,545.274c-0.024,0.024-0.049,0.047-0.074,0.07c0.005-0.004,0.011-0.006,0.015-0.01
			C483.445,545.31,483.434,545.32,483.48,545.274z"/>
		<path fill="#E8E4D9" d="M563.428,542.171c-0.018-0.014-0.037-0.026-0.055-0.04c-0.153-0.112-0.147-0.105,0.016,0.022
			C563.402,542.162,563.416,542.162,563.428,542.171z"/>
		<path fill="#E8E4D9" d="M458.859,794.523c-0.296,0.27-0.6,0.534-0.899,0.802c0.35-0.145,0.684-0.389,0.976-0.848
			C458.855,794.549,457.998,795.37,458.859,794.523z"/>
		<path fill="#E8E4D9" d="M382.13,552.874c-0.065,0.065-0.134,0.127-0.2,0.192c0.013-0.011,0.024-0.015,0.037-0.027
			C382.004,553.002,382.037,552.968,382.13,552.874z"/>
		<path fill="#D0C0B8" d="M817.066,659.997c-0.236,0.117-0.553,0.297,0.177-0.082C817.184,659.946,817.126,659.966,817.066,659.997z
			"/>
		<path fill="#D0C0B8" d="M757.636,739.542c-0.156,0.064-0.309,0.1-0.465,0.163c0.27,0.044,0.533-0.007,0.765-0.272
			c-0.193,0.08-0.386,0.159-0.579,0.24C757.448,739.626,757.541,739.582,757.636,739.542z"/>
		<path fill="#D0C0B8" d="M451.636,890.523C451.618,890.501,450.612,889.831,451.636,890.523L451.636,890.523z"/>
		<path fill="#F7E5DC" d="M635.611,660.597C635.644,660.686,634.922,658.469,635.611,660.597L635.611,660.597z"/>
	</g>
	<path fill="#E8E4D9" d="M685.551,84.9c2.869-0.974,5.703-2.086,8.504-3.35C691.254,82.814,688.42,83.926,685.551,84.9z"/>
	<polygon fill="#E8E4D9" points="328.731,63.128 310.213,53.238 310.204,53.234 310.213,53.238 	"/>
	<path fill="#E8E4D9" d="M721.383,64.672l-10.889,7.358c-4.024,2.894-8.108,5.381-12.262,7.51c4.154-2.129,8.238-4.616,12.262-7.51
		L721.383,64.672z"/>
	<path fill="none" d="M217.817,307.774c0,27.507,8.457,53.07,22.895,74.246c1.938-60.418,8.876-118.512,17.209-168.934
		C233.211,237.111,217.817,270.67,217.817,307.774z"/>
	<path fill="none" d="M640.395,179.024c-58.64,13.488-102.516,66.074-102.516,128.75c0,8.159,0.782,16.134,2.204,23.889
		C570.843,271.107,606.666,219.952,640.395,179.024z"/>
	<path fill="none" d="M480.132,330.316c1.266-7.331,1.963-14.854,1.963-22.542c0-57.099-36.409-105.845-87.226-124.269
		c2.206,3.174,4.392,6.335,6.546,9.469C429.169,233.361,458.762,278.652,480.132,330.316z"/>
	<g>
		<path fill="#C37817" d="M634.574,1045.646c-12.271-1.622-24.163-3.578-35.742-5.824c-16.463,13.727-28.787,33.184-26.003,55.418
			c0.543,4.339,5.066,26.633,13.152,16.426c3.452-4.357-0.88-16.206-0.077-21.552c2.917-19.412,20.787-32.973,38.553-39.365
			c-6.959,7.839-12.577,16.945-14.942,27.254c-2.298,10.012-1.7,21.842,2.639,31.314c2.966,6.475,9.946,10.412,11.48,0.613
			c0.867-5.54-2.438-12.238-1.613-18.314c1.325-9.755,6.562-17.83,13.763-24.365c4.901-4.448,11.987-7.449,18.214-11.161
			c-0.693,1.168-1.269,2.257-1.701,3.221c-8.63,19.264,0.009,41.03,13.02,56.02c4.747,5.528,8.144-1.425,7.88-5.476
			c-0.101-1.552-2.502-4.717-2.982-6.003c-3.081-8.254-6.214-17.079-4.299-26.034c2.435-11.388,9.876-13.03,18.223-18.776
			c3.202-2.204,6.023-4.987,7.315-8.217c-9.635-0.519-19.106-1.175-28.364-2.01C653.377,1047.937,643.88,1046.876,634.574,1045.646z
			"/>
		<path fill="#C37817" d="M497.303,1008.134c-10.182-4.659-20.012-9.693-29.482-15.13c-11.519,7.671-22.1,18.022-25.861,22.379
			c-12.049,13.957-18.978,31.651-16.112,50.212c0.706,4.57,1.833,15.663,8.692,14.547c5.901-0.961,3.607-7.012,3.42-10.733
			c-0.89-17.713,5.033-31.793,18.774-43.29c6.699-5.605,14.512-10.113,22.549-13.508c0.799-0.338,1.971-0.65,3.263-0.964
			c-3.684,2.867-7.516,5.652-10.518,9.175c-6.678,7.838-11.394,17.152-13.119,27.338c-0.754,4.453,1.862,47.934,12.756,32.332
			c2.71-3.881-0.346-15.802,0.287-19.97c1.161-7.64,4.074-14.684,9.216-20.546c4.622-5.27,11.719-8.159,17.976-11.734
			c-0.804,1.323-1.47,2.557-1.952,3.633c-8.63,19.263,0.009,41.031,13.02,56.019c4.747,5.529,8.144-1.425,7.88-5.476
			c-0.101-1.552-2.502-4.717-2.982-6.003c-3.08-8.254-6.213-17.079-4.299-26.034c2.435-11.388,9.876-13.029,18.223-18.776
			c3.157-2.173,5.949-4.907,7.266-8.079c-8.354-2.809-16.492-5.836-24.425-9.076
			C506.936,1012.431,502.084,1010.321,497.303,1008.134z"/>
	</g>
	<path fill="#E8E4D9" d="M819.283,320.679c-0.558-2.884-1.118-5.766-1.681-8.643c-0.008,0.297-0.012,0.596-0.023,0.892
		L819.283,320.679z"/>
	<g>
		<ellipse fill="#3B3A3F" cx="407.069" cy="312.085" rx="23.838" ry="33.55"/>
		<ellipse fill="#3B3A3F" cx="612.174" cy="312.085" rx="23.838" ry="33.55"/>
		<path fill="#3B3A3F" d="M349.956,455.468c60.777,0,113.081-36.91,135.717-89.484c-3.715-10.3-5.389-19.435-2.614-22.341
			c2.802-2.935,7.166-4.746,11.52-5.864c2.008-9.692,3.07-19.726,3.07-30.004c0-70.936-50.276-130.333-117.061-144.478
			c-9.888-2.094-20.13-3.215-30.632-3.215c-32.897,0-63.309,10.821-87.885,29.077c-36.263,26.938-59.809,70.076-59.809,118.617
			c0,37.919,14.376,72.537,37.949,98.718C267.266,436.538,306.437,455.468,349.956,455.468z M217.817,307.774
			c0-37.104,15.394-70.663,40.104-94.688c23.813-23.152,56.277-37.452,92.035-37.452c15.763,0,30.885,2.785,44.913,7.87
			c50.817,18.423,87.226,67.169,87.226,124.269c0,7.687-0.697,15.211-1.963,22.542c-10.733,62.156-65.001,109.598-130.176,109.598
			c-45.356,0-85.438-22.976-109.245-57.893C226.274,360.844,217.817,335.281,217.817,307.774z"/>
		<path fill="#3B3A3F" d="M534.923,367.358c22.953,51.836,74.852,88.11,135.093,88.11c37.966,0,72.625-14.41,98.817-38.035
			c28.797-25.976,47.317-63.104,48.746-104.504c0.01-0.297,0.014-0.595,0.023-0.892c0.041-1.419,0.108-2.832,0.108-4.261
			c0-21.895-4.826-42.672-13.412-61.38c-23.349-50.875-74.739-86.314-134.282-86.314c-4.77,0-9.482,0.248-14.138,0.692
			c-74.828,7.142-133.554,70.334-133.554,147.001c0,10.181,1.036,20.125,3.007,29.731c4.729,1.087,9.637,2.938,12.691,6.137
			C540.935,346.692,539.001,356.515,534.923,367.358z M640.395,179.024c9.53-2.192,19.436-3.389,29.622-3.389
			c72.86,0,132.139,59.277,132.139,132.139s-59.279,132.139-132.139,132.139c-64.702,0-118.653-46.758-129.933-108.251
			c-1.422-7.754-2.204-15.73-2.204-23.889C537.879,245.098,581.755,192.513,640.395,179.024z"/>
	</g>
	<g>
		<g>
			<path fill="#E8E4D9" d="M401.768,121.052c-5.448,1.675-11.747,0.98-16.581-2.257c-5.963-3.906-5.133,4.437-4.279,6.941
				c2.217,6.505,11.168,10.204,17.433,10.22c7.168,0.018,28.285-12.426,20.98-21.997
				C415.728,109.251,406.234,119.679,401.768,121.052z"/>
			<path fill="#E8E4D9" d="M469.228,115.357c-8.467,2.181-12.377-2.715-18.702-7.526c-5.278-3.379-4.827,3.244-4.804,5.799
				c0.052,5.94,5.744,12.19,10.645,14.558c11.059,5.344,25.767-0.755,29.789-12.22C493.161,96.001,474.616,113.97,469.228,115.357z"
				/>
			<path fill="#E8E4D9" d="M557.276,110.431c1.731-14.718-12.697,1.096-18.213,2.361c-4.826,1.106-10.92-1.709-14.995-5.12
				c-6.157-5.267-5.422,5.373-4.531,7.818c2.328,6.385,10.219,11.472,16.886,11.81C545.088,127.738,556.226,119.359,557.276,110.431
				z"/>
			<path fill="#E8E4D9" d="M610.535,118.474c-5.4,0.274-10.396-3.357-15.155-5.233c-11.298-0.541,1.58,15.597,6.004,17.59
				c7.43,3.347,20.957,0.79,22.176-8.901C624.921,111.108,616.092,118.192,610.535,118.474z"/>
			<path fill="#E8E4D9" d="M503.838,176.578c9.551,3.017,22.24-2.663,25.647-12.177c2.232-6.235,1.122-10.962-5.392-8.825
				c-2.327,0.763-5.07,5.243-8.104,6.429c-7.132,2.788-13.08,0.569-17.645-5.69c-5.003-6.27-6.572,4.137-6.318,6.699
				C492.643,169.249,498.105,174.767,503.838,176.578z"/>
			<path fill="#E8E4D9" d="M574.735,157.391c-7.132,3.774-12.142,3.102-19.166-1.547c-4-3.147-5.604,2.075-5.547,4.912
				c0.112,5.696,8.118,11.68,12.772,12.923c8.557,2.287,25.442-5.648,22.177-16.688C582.728,149.408,578.78,155.251,574.735,157.391
				z"/>
			<path fill="#E8E4D9" d="M456.994,164.289c-4.337,0.467-8.351-1.402-12.312-2.417c-1.507-0.386-2.623-3.081-4.499-2.745
				c-5.837,1.046-3.333,8.08-1.073,11.394c3.493,5.122,10.645,7.659,16.585,7.827c9.078,0.256,16.185-5.018,17.553-14.325
				C474.262,155.557,460.236,163.94,456.994,164.289z"/>
			<path fill="#E8E4D9" d="M529.306,205.33c-4.021-0.699-6.927,6.497-9.83,7.912c-7.334,3.576-16.17,0.435-21.063-5.221
				c-5.394-5.146-5.571,3.737-5.497,6.158c0.176,5.777,5.5,11.009,10.511,13.017c10.096,4.046,23.378-0.037,27.497-10.295
				C532.185,213.765,534.498,206.232,529.306,205.33z"/>
		</g>
		<g>
			<path fill="#E8E4D9" d="M349.956,439.913c65.175,0,119.443-47.442,130.176-109.598c-21.37-51.663-50.963-96.955-78.717-137.342
				c-2.154-3.134-4.34-6.294-6.546-9.469c-14.028-5.086-29.151-7.87-44.913-7.87c-35.758,0-68.222,14.299-92.035,37.452
				c-8.334,50.422-15.271,108.516-17.209,168.934C264.518,416.937,304.6,439.913,349.956,439.913z M407.069,278.534
				c13.166,0,23.838,15.021,23.838,33.55c0,18.529-10.673,33.55-23.838,33.55s-23.838-15.021-23.838-33.55
				C383.23,293.555,393.903,278.534,407.069,278.534z"/>
			<path fill="#E8E4D9" d="M576.881,860.075c-37.671-110.657,35.316-214.252,120.075-324.909
				c30.304-39.564,53.954-80.907,71.877-117.733c-26.192,23.625-60.85,38.035-98.817,38.035c-60.242,0-112.141-36.273-135.093-88.11
				c-6.348,16.881-17.908,36.242-24.577,36.429c-6.376,0.179-18.418-20.465-24.672-37.804
				c-22.636,52.574-74.941,89.484-135.717,89.484c-43.518,0-82.69-18.93-109.744-48.976c-0.262,30.186,0.814,60.76,3.685,91.076
				c24.564,259.388,88.335,417.603,223.924,495.437c9.47,5.436,19.3,10.471,29.482,15.13c4.78,2.187,9.633,4.298,14.574,6.316
				c7.932,3.24,16.071,6.267,24.425,9.076c19.641,6.605,40.472,12.018,62.531,16.297c11.578,2.246,23.471,4.202,35.742,5.824
				c9.306,1.23,18.803,2.292,28.516,3.168c9.258,0.836,18.729,1.491,28.364,2.01c23.831,1.284,48.837,1.599,75.045,0.991
				C672.635,993.188,598.137,922.515,576.881,860.075z M292.744,553.967c-1.752-2.211-5.929-6.266-5.609-9.331
				c0.407-3.908,3.679-6.056,7.066-2.808c12.772,16.711,33.653,28.092,54.185,18.471c11.269-5.28,22.884-26.393,37.039-20.866
				c8.717,3.404,15.408,10.738,24.716,13.742c11.218,3.621,23.202,3.24,34.121-1.115c9.445-3.767,16.7-10.106,24.187-16.745
				c2.72-2.412,4.88-4.97,8.599-5.976c8.163-2.209,15.628,4.84,22.475,8.066c11.116,5.236,24.418,9.284,36.725,6.242
				c10.985-2.716,21.274-19.832,33.517-15.657c4.252,1.45,8.222,5.928,11.81,8.238c10.019,6.452,21.585,11.178,33.679,10.836
				c9.513-0.269,17.925-3.498,25.698-8.87c3.887-2.686,11.273-13.238,15.866-13.809c12.312-1.53-0.132,12.85-3.154,16.102
				c-7.613,8.191-17.141,14.799-28.02,17.735c-21.211,5.725-42.832-2.12-60.107-14.52c-23.932,24.217-56.375,20.299-84.277,3.697
				c-29.406,27.591-68.502,34.275-101.175,7.445c-16.054,15.297-36.96,27.128-59.64,19.589
				C309.328,570.738,299.953,563.066,292.744,553.967z M525.473,889.836c-2.374,18.084-32.684,29.26-47.275,27.58
				c-9.532-1.098-18.468-5.47-25.344-12.132c-2.121-2.055-6.949-6.2-7.238-9.339c-0.288-3.128,1.25-8.644,6.019-5.422
				c-1.023-0.691-0.018-0.022,0,0c8.625,10.576,31.876,11.054,43.358,7.126C501.202,895.526,527.42,875.008,525.473,889.836z
				 M522.833,799.389c-20.829,18.738-48.089,18.092-66.585-2.538c-12.795,11.152-27.922,20.268-45.715,16.313
				c-9.541-2.121-18.029-7.718-24.538-14.9c-1.935-2.135-7.037-7.138-7.234-10.146c-0.217-3.31,2.733-8.923,6.655-4.604
				c20.198,20.38,39.201,16.4,59.169,0.296c20.929-16.878,30.068,17.051,52.742,13.894c11.463-1.596,18.522-11.419,28.648-14.365
				C541.327,778.874,526.988,795.651,522.833,799.389z M535.736,691.105c-17.402,4.737-34.684-0.981-47.726-12.407
				c-27.271,27.335-62.591,31.053-91.942,3.725c-13.052,12.994-30.174,20.114-48.769,15.847
				c-10.966-2.517-21.116-8.457-29.507-15.862c-1.675-1.478-6.078-4.53-6.759-6.744c-1.285-4.182,0.91-8.585,5.758-5.698
				c15.191,12.277,37.1,21.721,55.694,11.261c11.614-6.534,16.544-22.198,32.081-13.65c14.632,8.05,24.311,20.096,43.258,16.669
				c15.58-2.818,31.829-29.83,47.301-21.118c13.401,7.546,20.722,18.12,38.501,14.493c9.214-1.88,17.389-7.009,24.744-12.666
				c2.788-2.145,12.744-14.111,16.04-6.341C579.265,670.056,542.812,689.179,535.736,691.105z"/>
			<path fill="#E8E4D9" d="M380.588,163.296c-26.543-36.932-56.371-74.468-88.754-103.639c0,0-0.269,0.164-0.707,1.734
				c-6.384,22.842-18.332,68.795-29.056,127.766c24.576-18.256,54.988-29.077,87.885-29.077
				C360.458,160.08,370.701,161.201,380.588,163.296z"/>
			<path fill="#E8E4D9" d="M670.016,439.913c72.86,0,132.139-59.277,132.139-132.139s-59.279-132.139-132.139-132.139
				c-10.186,0-20.091,1.197-29.622,3.389c-33.729,40.928-69.552,92.083-100.312,152.639
				C551.363,393.155,605.315,439.913,670.016,439.913z M612.174,278.534c13.166,0,23.838,15.021,23.838,33.55
				c0,18.529-10.673,33.55-23.838,33.55c-13.166,0-23.838-15.021-23.838-33.55C588.335,293.555,599.008,278.534,612.174,278.534z"/>
			<path fill="#E8E4D9" d="M804.298,246.394c-15.072-71.791-30.241-135.588-41.418-173.188c-2.168-7.292-3.658-11.429-3.658-11.429
				c-6.706,4.778-50.911,38.82-103.344,98.995c4.656-0.444,9.368-0.692,14.138-0.692
				C729.559,160.08,780.949,195.519,804.298,246.394z"/>
			<path fill="#E8E4D9" d="M703.994,615.455c10.463,17.443,23.378,19.374,41.325,16.901c13.336,29.19,40.496,42.587,69.985,28.453
				c5.896,12.181,14.213,23.999,26.616,30.108c6.324,3.115,35.98,8.129,37.191-4.385c0.725-7.492-9.034-3.358-12.597-3.008
				c-7.789,0.763-14.171-0.902-20.43-5.659c-10.745-8.165-12.83-28.985-25.361-33.364c-11.099-3.879-21.632,7.443-33.422,5.33
				c-15.349-2.751-19.513-16.442-27.912-27.002c-10.338-12.997-18.671-1.444-30.928-4.262
				c-14.949-3.437-22.992-25.384-27.058-38.339c-5.103-9.994-7.616,3.43-7.085,7.714
				C695.479,597.303,699.178,607.425,703.994,615.455z M817.066,659.997c0.06-0.031,0.118-0.051,0.177-0.082
				C816.513,660.294,816.831,660.113,817.066,659.997z"/>
			<path fill="#E8E4D9" d="M902.12,787.453c-10.71,4.586-19.263,8.53-30.981,3.177c-11.36-5.189-18.689-15.849-25.349-25.885
				c-11.787-17.762-21.032-6.969-37.744-5.846c-10.382,0.698-19.071-3.883-26.033-11.38c-6.013-6.475-8.9-18.063-16.484-22.87
				c-9.404-5.961-16.756,1.141-25.869,2.351c-12.492,1.659-23.372-5.196-31.898-13.616c-8.351-8.247-11.744-19.457-24.299-21.104
				c-13.546-1.778-23.063-1.144-33.831-11.304c-5.795-5.468-11.224-12.848-14.023-20.378c-1.744-5.379-6.433-1.998-7.584,0.951
				c-0.676,1.733,0.695,3.951,1.114,5.57c1.989,7.689,7.102,15.656,12.218,21.576c11.101,12.847,25.598,17.951,42.101,18.232
				c-0.013,0.001-0.042-0.003-0.052-0.002c15.968,26.909,42.124,44.675,72.709,33.149c6.849,13.906,17.56,27.13,32.288,32.918
				c15.08,5.927,27.97,1.545,41.969-3.772c14.408,16.912,27.47,38.27,53.365,35.865c7.275-0.676,21.737-5.164,25.941-12.254
				C914.676,784.404,907.999,784.935,902.12,787.453z M757.171,739.705c0.156-0.062,0.308-0.099,0.465-0.163
				c-0.095,0.04-0.188,0.083-0.279,0.13c0.193-0.08,0.386-0.16,0.579-0.24C757.704,739.698,757.441,739.749,757.171,739.705z"/>
			<path fill="#E8E4D9" d="M675.202,756.062c-5.031,3.552-9.401,13.869-12.216,18.89c-7.878,14.049-14.096,29.037-18.797,44.435
				c-4.523,14.814-7.546,30.124-8.739,45.567c-0.541,7.005-4.341,33.583,2.148,38.294c9.538,6.925,10.266-21.333,10.98-25.302
				c2.47-13.73,5.328-27.385,8.917-40.871c7.074-26.582,16.248-52.528,25.8-78.305C685.912,751.616,677.703,754.296,675.202,756.062
				z"/>
			<path fill="#E8E4D9" d="M753.349,800.368c-4.991,6.201-7.937,15.813-10.82,23.137c-7.08,17.984-12.054,36.806-16.062,55.687
				c-4.154,19.574-7.087,39.446-8.922,59.37c-0.582,6.321-6.289,36.039-0.761,40.457c8.833,7.06,10.619-15.293,11.472-19.244
				c4.135-19.168,7.85-38.428,11.598-57.674c6.664-34.218,14.063-68.09,22.776-101.833
				C764.881,791.241,755.314,797.927,753.349,800.368z"/>
			<path fill="#E8E4D9" d="M824.843,848.471c-4.431,4.444-7.115,13.149-9.301,18.873c-5.663,14.83-9.297,30.505-12.024,46.114
				c-3.884,22.23-5.826,44.849-6.423,67.396c-0.254,9.587-0.248,19.189,0.108,28.773c0.184,4.949-1.065,14.351,1.246,18.831
				c7.67,14.865,10.234-11.722,10.671-15.1c2.499-19.353,4.531-38.768,6.688-58.16c3.941-35.418,7.574-71.089,17.615-105.376
				C834.017,841.836,827.63,845.676,824.843,848.471z"/>
			<path fill="#E8E4D9" d="M900.759,898.563c-1.424-6.076-5.861-3.375-8.273,0.035c-3.768,5.328-3.255,16.882-4.002,23.327
				c-2.127,18.346-2.547,36.882-2.413,55.332c0.151,20.764,1.137,41.522,3.098,62.196c0.954,10.059-0.498,30.618,5.186,39.187
				c9.087,13.698,9.275-14.33,9.412-18.144c0.665-18.507,0.634-37.044,0.354-55.558
				C903.585,969.464,901.884,934.018,900.759,898.563z"/>
		</g>
	</g>
	<path fill="#FEA61D" d="M485.673,365.983c6.254,17.338,18.296,37.982,24.672,37.804c6.669-0.187,18.229-19.548,24.577-36.429
		c4.078-10.843,6.012-20.666,3.099-23.716c-3.054-3.199-7.961-5.05-12.691-6.137c-6.802-1.563-13.233-1.53-13.233-1.53h-3.114
		c0,0-7.188-0.051-14.404,1.803c-4.354,1.118-8.718,2.929-11.52,5.864C480.284,346.548,481.958,355.683,485.673,365.983z"/>
</g>
</svg>
